STARTFONT 2.1
FONT -FontForge-Helvetica Neue-Book-R-Normal--12-120-75-75-P-61-ISO10646-1
SIZE 12 75 75
FONTBOUNDINGBOX 11 13 0 -3
COMMENT "Generated by fontforge, http://fontforge.sourceforge.net"
COMMENT "Copyright (c) 1981, 1982, 1983, 1989 and 1993, Linotype Library GmbH or its affiliated Linotype-Hell companies. All rights reserved."
COMMENT ""
COMMENT "The digitally encoded machine readable software for producing the Typefaces licensed to you is now the property of Heidelberger Druckmaschinen AG and its licensors, and may not be reproduced, used, displayed, modified, disclosed or transferred without the express written approval of Heidelberger Druckmaschinen AG."
COMMENT ""
COMMENT "Copyright (c) 1988, 1990, 1993 Adobe Systems Incorporated. All Rights Reserved."
STARTPROPERTIES 40
FOUNDRY "FontForge"
FAMILY_NAME "Helvetica Neue"
WEIGHT_NAME "Book"
SLANT "R"
SETWIDTH_NAME "Normal"
ADD_STYLE_NAME ""
PIXEL_SIZE 12
POINT_SIZE 120
RESOLUTION_X 75
RESOLUTION_Y 75
SPACING "P"
AVERAGE_WIDTH 61
CHARSET_REGISTRY "ISO10646"
CHARSET_ENCODING "1"
FONTNAME_REGISTRY ""
CHARSET_COLLECTIONS "ISO8859-5 ISO10646-1"
FONT_NAME "HelveticaNeue"
FACE_NAME "Helvetica Neue"
COPYRIGHT "Copyright (c) 1981, 1982, 1983, 1989 and 1993, Linotype Library GmbH or its affiliated Linotype-Hell companies. All rights reserved."
FONT_VERSION "6.1d8e1"
FONT_ASCENT 10
FONT_DESCENT 2
UNDERLINE_POSITION -2
UNDERLINE_THICKNESS 1
X_HEIGHT 5
CAP_HEIGHT 8
RAW_ASCENT 800
RAW_DESCENT 200
NORM_SPACE 3
RELATIVE_WEIGHT 40
RELATIVE_SETWIDTH 50
SUPERSCRIPT_X 0
SUPERSCRIPT_Y 3
SUPERSCRIPT_SIZE 2
SUBSCRIPT_X 0
SUBSCRIPT_Y 3
SUBSCRIPT_SIZE 2
FIGURE_WIDTH 7
AVG_LOWERCASE_WIDTH 61
AVG_UPPERCASE_WIDTH 79
ENDPROPERTIES
CHARS 99
STARTCHAR controlBS
ENCODING 8
SWIDTH 0 0
DWIDTH 0 0
BBX 1 1 0 0
BITMAP
00
ENDCHAR
STARTCHAR controlHT
ENCODING 9
SWIDTH 278 0
DWIDTH 3 0
BBX 1 1 0 0
BITMAP
00
ENDCHAR
STARTCHAR controlCR
ENCODING 13
SWIDTH 278 0
DWIDTH 3 0
BBX 1 1 0 0
BITMAP
00
ENDCHAR
STARTCHAR controlGS
ENCODING 29
SWIDTH 0 0
DWIDTH 0 0
BBX 1 1 0 0
BITMAP
00
ENDCHAR
STARTCHAR space
ENCODING 32
SWIDTH 278 0
DWIDTH 3 0
BBX 1 1 0 0
BITMAP
00
ENDCHAR
STARTCHAR exclam
ENCODING 33
SWIDTH 259 0
DWIDTH 3 0
BBX 1 9 1 0
BITMAP
80
80
80
80
80
80
00
00
80
ENDCHAR
STARTCHAR quotedbl
ENCODING 34
SWIDTH 426 0
DWIDTH 5 0
BBX 3 4 1 5
BITMAP
A0
A0
A0
A0
ENDCHAR
STARTCHAR numbersign
ENCODING 35
SWIDTH 556 0
DWIDTH 7 0
BBX 6 8 0 0
BITMAP
2C
28
7C
28
28
FC
48
50
ENDCHAR
STARTCHAR dollar
ENCODING 36
SWIDTH 556 0
DWIDTH 7 0
BBX 6 11 0 -1
BITMAP
10
78
94
90
D0
38
24
94
D4
78
10
ENDCHAR
STARTCHAR percent
ENCODING 37
SWIDTH 1000 0
DWIDTH 12 0
BBX 10 9 1 0
BITMAP
6180
9100
9200
9400
6D80
0A40
1240
2240
6180
ENDCHAR
STARTCHAR ampersand
ENCODING 38
SWIDTH 630 0
DWIDTH 8 0
BBX 7 9 0 0
BITMAP
30
48
48
30
70
9C
8C
8C
72
ENDCHAR
STARTCHAR quotesingle
ENCODING 39
SWIDTH 278 0
DWIDTH 3 0
BBX 1 4 1 5
BITMAP
80
80
80
80
ENDCHAR
STARTCHAR parenleft
ENCODING 40
SWIDTH 259 0
DWIDTH 3 0
BBX 2 11 1 -2
BITMAP
40
40
80
80
80
80
80
80
80
40
40
ENDCHAR
STARTCHAR parenright
ENCODING 41
SWIDTH 259 0
DWIDTH 4 0
BBX 2 11 1 -2
BITMAP
80
80
40
40
40
40
40
40
40
80
80
ENDCHAR
STARTCHAR asterisk
ENCODING 42
SWIDTH 352 0
DWIDTH 4 0
BBX 5 4 0 5
BITMAP
20
70
A8
50
ENDCHAR
STARTCHAR plus
ENCODING 43
SWIDTH 600 0
DWIDTH 7 0
BBX 7 6 0 0
BITMAP
10
10
FE
10
10
10
ENDCHAR
STARTCHAR comma
ENCODING 44
SWIDTH 278 0
DWIDTH 3 0
BBX 1 3 1 -2
BITMAP
80
80
80
ENDCHAR
STARTCHAR hyphen
ENCODING 45
SWIDTH 389 0
DWIDTH 5 0
BBX 3 1 1 3
BITMAP
E0
ENDCHAR
STARTCHAR period
ENCODING 46
SWIDTH 278 0
DWIDTH 3 0
BBX 1 1 1 0
BITMAP
80
ENDCHAR
STARTCHAR slash
ENCODING 47
SWIDTH 333 0
DWIDTH 4 0
BBX 4 9 0 0
BITMAP
10
10
20
20
40
40
40
80
80
ENDCHAR
STARTCHAR zero
ENCODING 48
SWIDTH 556 0
DWIDTH 7 0
BBX 5 9 1 0
BITMAP
70
88
88
88
88
88
88
88
70
ENDCHAR
STARTCHAR one
ENCODING 49
SWIDTH 556 0
DWIDTH 7 0
BBX 3 9 1 0
BITMAP
20
20
E0
20
20
20
20
20
20
ENDCHAR
STARTCHAR two
ENCODING 50
SWIDTH 556 0
DWIDTH 7 0
BBX 5 9 1 0
BITMAP
70
88
88
08
10
20
40
80
F8
ENDCHAR
STARTCHAR three
ENCODING 51
SWIDTH 556 0
DWIDTH 7 0
BBX 6 9 0 0
BITMAP
78
C4
84
04
18
04
84
C4
78
ENDCHAR
STARTCHAR four
ENCODING 52
SWIDTH 556 0
DWIDTH 7 0
BBX 6 9 0 0
BITMAP
08
18
28
28
48
88
FC
08
08
ENDCHAR
STARTCHAR five
ENCODING 53
SWIDTH 556 0
DWIDTH 7 0
BBX 6 8 0 0
BITMAP
78
40
B8
C4
04
84
C4
78
ENDCHAR
STARTCHAR six
ENCODING 54
SWIDTH 556 0
DWIDTH 7 0
BBX 6 9 0 0
BITMAP
78
C8
80
F8
C4
84
84
C4
78
ENDCHAR
STARTCHAR seven
ENCODING 55
SWIDTH 556 0
DWIDTH 7 0
BBX 5 8 1 0
BITMAP
F8
08
10
20
20
40
40
40
ENDCHAR
STARTCHAR eight
ENCODING 56
SWIDTH 556 0
DWIDTH 7 0
BBX 5 9 1 0
BITMAP
70
88
88
88
70
88
88
88
70
ENDCHAR
STARTCHAR nine
ENCODING 57
SWIDTH 556 0
DWIDTH 7 0
BBX 6 9 0 0
BITMAP
78
84
84
84
84
7C
04
C8
78
ENDCHAR
STARTCHAR colon
ENCODING 58
SWIDTH 278 0
DWIDTH 3 0
BBX 1 6 1 0
BITMAP
80
00
00
00
00
80
ENDCHAR
STARTCHAR semicolon
ENCODING 59
SWIDTH 278 0
DWIDTH 3 0
BBX 1 8 1 -2
BITMAP
80
00
00
00
00
80
80
80
ENDCHAR
STARTCHAR less
ENCODING 60
SWIDTH 600 0
DWIDTH 7 0
BBX 6 6 1 0
BITMAP
0C
30
C0
C0
30
0C
ENDCHAR
STARTCHAR equal
ENCODING 61
SWIDTH 600 0
DWIDTH 7 0
BBX 6 4 1 1
BITMAP
FC
00
00
FC
ENDCHAR
STARTCHAR greater
ENCODING 62
SWIDTH 600 0
DWIDTH 7 0
BBX 6 6 1 0
BITMAP
80
60
18
0C
70
80
ENDCHAR
STARTCHAR question
ENCODING 63
SWIDTH 556 0
DWIDTH 7 0
BBX 5 9 1 0
BITMAP
70
88
88
08
10
20
20
00
20
ENDCHAR
STARTCHAR at
ENCODING 64
SWIDTH 800 0
DWIDTH 10 0
BBX 9 9 0 0
BITMAP
1E00
6100
9E80
9680
A280
A480
A500
7E00
1F80
ENDCHAR
STARTCHAR A
ENCODING 65
SWIDTH 648 0
DWIDTH 8 0
BBX 8 9 0 0
BITMAP
18
18
28
24
24
7E
42
C2
83
ENDCHAR
STARTCHAR B
ENCODING 66
SWIDTH 685 0
DWIDTH 8 0
BBX 6 9 1 0
BITMAP
F8
84
84
84
F8
84
84
84
F8
ENDCHAR
STARTCHAR C
ENCODING 67
SWIDTH 722 0
DWIDTH 9 0
BBX 7 9 1 0
BITMAP
3C
46
82
80
80
80
82
46
3C
ENDCHAR
STARTCHAR D
ENCODING 68
SWIDTH 704 0
DWIDTH 8 0
BBX 6 9 1 0
BITMAP
F0
88
84
84
84
84
84
88
F0
ENDCHAR
STARTCHAR E
ENCODING 69
SWIDTH 611 0
DWIDTH 7 0
BBX 6 9 1 0
BITMAP
FC
80
80
80
F8
80
80
80
FC
ENDCHAR
STARTCHAR F
ENCODING 70
SWIDTH 574 0
DWIDTH 7 0
BBX 5 9 1 0
BITMAP
F8
80
80
80
F8
80
80
80
80
ENDCHAR
STARTCHAR G
ENCODING 71
SWIDTH 759 0
DWIDTH 9 0
BBX 7 9 1 0
BITMAP
3C
46
82
80
9E
82
82
46
3A
ENDCHAR
STARTCHAR H
ENCODING 72
SWIDTH 722 0
DWIDTH 9 0
BBX 7 9 1 0
BITMAP
82
82
82
82
FE
82
82
82
82
ENDCHAR
STARTCHAR I
ENCODING 73
SWIDTH 259 0
DWIDTH 3 0
BBX 1 9 1 0
BITMAP
80
80
80
80
80
80
80
80
80
ENDCHAR
STARTCHAR J
ENCODING 74
SWIDTH 519 0
DWIDTH 6 0
BBX 5 9 0 0
BITMAP
08
08
08
08
08
08
88
88
70
ENDCHAR
STARTCHAR K
ENCODING 75
SWIDTH 667 0
DWIDTH 8 0
BBX 7 9 1 0
BITMAP
86
88
90
A0
F0
D8
88
8C
86
ENDCHAR
STARTCHAR L
ENCODING 76
SWIDTH 556 0
DWIDTH 7 0
BBX 6 9 1 0
BITMAP
80
80
80
80
80
80
80
80
FC
ENDCHAR
STARTCHAR M
ENCODING 77
SWIDTH 871 0
DWIDTH 10 0
BBX 8 9 1 0
BITMAP
C3
C3
C3
A5
A5
A5
99
99
99
ENDCHAR
STARTCHAR N
ENCODING 78
SWIDTH 722 0
DWIDTH 9 0
BBX 7 9 1 0
BITMAP
C2
C2
E2
B2
92
9A
8A
86
86
ENDCHAR
STARTCHAR O
ENCODING 79
SWIDTH 760 0
DWIDTH 9 0
BBX 8 9 0 0
BITMAP
3C
42
81
81
81
81
81
42
3C
ENDCHAR
STARTCHAR P
ENCODING 80
SWIDTH 648 0
DWIDTH 8 0
BBX 6 9 1 0
BITMAP
F8
84
84
84
84
F8
80
80
80
ENDCHAR
STARTCHAR Q
ENCODING 81
SWIDTH 760 0
DWIDTH 9 0
BBX 8 10 0 -1
BITMAP
3C
42
81
81
81
81
89
46
3E
01
ENDCHAR
STARTCHAR R
ENCODING 82
SWIDTH 685 0
DWIDTH 8 0
BBX 6 9 1 0
BITMAP
F8
84
84
84
F8
84
84
84
84
ENDCHAR
STARTCHAR S
ENCODING 83
SWIDTH 648 0
DWIDTH 8 0
BBX 7 9 0 0
BITMAP
78
8C
84
C0
3C
02
82
C2
7C
ENDCHAR
STARTCHAR T
ENCODING 84
SWIDTH 574 0
DWIDTH 7 0
BBX 7 9 0 0
BITMAP
FE
10
10
10
10
10
10
10
10
ENDCHAR
STARTCHAR U
ENCODING 85
SWIDTH 722 0
DWIDTH 9 0
BBX 7 9 1 0
BITMAP
82
82
82
82
82
82
82
C6
7C
ENDCHAR
STARTCHAR V
ENCODING 86
SWIDTH 611 0
DWIDTH 7 0
BBX 7 9 0 0
BITMAP
82
42
46
44
24
28
28
18
10
ENDCHAR
STARTCHAR W
ENCODING 87
SWIDTH 926 0
DWIDTH 11 0
BBX 11 9 0 0
BITMAP
8420
4A60
4A40
4A40
4A40
7140
3180
3180
3180
ENDCHAR
STARTCHAR X
ENCODING 88
SWIDTH 611 0
DWIDTH 7 0
BBX 7 9 0 0
BITMAP
C2
44
2C
38
10
38
2C
44
C2
ENDCHAR
STARTCHAR Y
ENCODING 89
SWIDTH 648 0
DWIDTH 8 0
BBX 7 9 0 0
BITMAP
82
44
44
28
38
10
10
10
10
ENDCHAR
STARTCHAR Z
ENCODING 90
SWIDTH 611 0
DWIDTH 7 0
BBX 7 9 0 0
BITMAP
7E
06
0C
08
10
30
60
40
FE
ENDCHAR
STARTCHAR bracketleft
ENCODING 91
SWIDTH 259 0
DWIDTH 3 0
BBX 2 11 1 -2
BITMAP
C0
80
80
80
80
80
80
80
80
80
C0
ENDCHAR
STARTCHAR backslash
ENCODING 92
SWIDTH 333 0
DWIDTH 4 0
BBX 4 9 0 0
BITMAP
80
80
40
40
40
20
20
10
10
ENDCHAR
STARTCHAR bracketright
ENCODING 93
SWIDTH 259 0
DWIDTH 3 0
BBX 2 11 0 -2
BITMAP
C0
40
40
40
40
40
40
40
40
40
C0
ENDCHAR
STARTCHAR asciicircum
ENCODING 94
SWIDTH 600 0
DWIDTH 7 0
BBX 6 5 1 3
BITMAP
20
50
50
88
8C
ENDCHAR
STARTCHAR underscore
ENCODING 95
SWIDTH 500 0
DWIDTH 6 0
BBX 6 1 0 -2
BITMAP
FC
ENDCHAR
STARTCHAR grave
ENCODING 96
SWIDTH 222 0
DWIDTH 3 0
BBX 2 2 0 7
BITMAP
80
40
ENDCHAR
STARTCHAR a
ENCODING 97
SWIDTH 537 0
DWIDTH 7 0
BBX 7 6 0 0
BITMAP
78
84
0C
F4
8C
F6
ENDCHAR
STARTCHAR b
ENCODING 98
SWIDTH 593 0
DWIDTH 7 0
BBX 5 9 1 0
BITMAP
80
80
80
F0
88
88
88
88
F0
ENDCHAR
STARTCHAR c
ENCODING 99
SWIDTH 537 0
DWIDTH 6 0
BBX 5 6 0 0
BITMAP
70
88
80
80
88
70
ENDCHAR
STARTCHAR d
ENCODING 100
SWIDTH 593 0
DWIDTH 7 0
BBX 6 9 0 0
BITMAP
04
04
04
7C
8C
84
84
8C
7C
ENDCHAR
STARTCHAR e
ENCODING 101
SWIDTH 537 0
DWIDTH 6 0
BBX 6 6 0 0
BITMAP
78
84
FC
80
C4
78
ENDCHAR
STARTCHAR f
ENCODING 102
SWIDTH 296 0
DWIDTH 4 0
BBX 3 9 0 0
BITMAP
60
40
40
E0
40
40
40
40
40
ENDCHAR
STARTCHAR g
ENCODING 103
SWIDTH 574 0
DWIDTH 7 0
BBX 6 9 0 -3
BITMAP
7C
8C
84
84
8C
74
04
8C
78
ENDCHAR
STARTCHAR h
ENCODING 104
SWIDTH 556 0
DWIDTH 7 0
BBX 5 9 1 0
BITMAP
80
80
80
F0
88
88
88
88
88
ENDCHAR
STARTCHAR i
ENCODING 105
SWIDTH 222 0
DWIDTH 3 0
BBX 1 8 1 0
BITMAP
80
00
80
80
80
80
80
80
ENDCHAR
STARTCHAR j
ENCODING 106
SWIDTH 222 0
DWIDTH 3 0
BBX 2 10 0 -2
BITMAP
40
40
40
40
40
40
40
40
40
C0
ENDCHAR
STARTCHAR k
ENCODING 107
SWIDTH 519 0
DWIDTH 6 0
BBX 5 9 1 0
BITMAP
80
80
88
90
A0
E0
B0
90
88
ENDCHAR
STARTCHAR l
ENCODING 108
SWIDTH 222 0
DWIDTH 3 0
BBX 1 9 1 0
BITMAP
80
80
80
80
80
80
80
80
80
ENDCHAR
STARTCHAR m
ENCODING 109
SWIDTH 853 0
DWIDTH 11 0
BBX 9 6 1 0
BITMAP
FF80
8880
8880
8880
8880
8880
ENDCHAR
STARTCHAR n
ENCODING 110
SWIDTH 556 0
DWIDTH 7 0
BBX 5 6 1 0
BITMAP
F0
88
88
88
88
88
ENDCHAR
STARTCHAR o
ENCODING 111
SWIDTH 574 0
DWIDTH 7 0
BBX 6 6 0 0
BITMAP
78
84
84
84
84
78
ENDCHAR
STARTCHAR p
ENCODING 112
SWIDTH 593 0
DWIDTH 7 0
BBX 5 8 1 -2
BITMAP
F0
88
88
88
88
F0
80
80
ENDCHAR
STARTCHAR q
ENCODING 113
SWIDTH 593 0
DWIDTH 7 0
BBX 6 8 0 -2
BITMAP
7C
8C
84
84
8C
7C
04
04
ENDCHAR
STARTCHAR r
ENCODING 114
SWIDTH 333 0
DWIDTH 4 0
BBX 3 6 1 0
BITMAP
A0
C0
80
80
80
80
ENDCHAR
STARTCHAR s
ENCODING 115
SWIDTH 500 0
DWIDTH 6 0
BBX 5 6 0 0
BITMAP
70
88
C0
38
88
78
ENDCHAR
STARTCHAR t
ENCODING 116
SWIDTH 315 0
DWIDTH 4 0
BBX 3 8 0 0
BITMAP
40
40
E0
40
40
40
40
60
ENDCHAR
STARTCHAR u
ENCODING 117
SWIDTH 556 0
DWIDTH 7 0
BBX 5 6 1 0
BITMAP
88
88
88
88
88
78
ENDCHAR
STARTCHAR v
ENCODING 118
SWIDTH 500 0
DWIDTH 6 0
BBX 6 6 0 0
BITMAP
84
48
48
28
30
30
ENDCHAR
STARTCHAR w
ENCODING 119
SWIDTH 758 0
DWIDTH 9 0
BBX 9 6 0 0
BITMAP
8880
5500
5500
5500
3600
2200
ENDCHAR
STARTCHAR x
ENCODING 120
SWIDTH 518 0
DWIDTH 6 0
BBX 6 6 0 0
BITMAP
CC
68
30
30
48
CC
ENDCHAR
STARTCHAR y
ENCODING 121
SWIDTH 500 0
DWIDTH 6 0
BBX 6 8 0 -2
BITMAP
84
48
48
30
30
30
20
60
ENDCHAR
STARTCHAR z
ENCODING 122
SWIDTH 480 0
DWIDTH 6 0
BBX 6 6 0 0
BITMAP
F8
08
10
20
40
FC
ENDCHAR
STARTCHAR braceleft
ENCODING 123
SWIDTH 333 0
DWIDTH 4 0
BBX 3 11 1 -2
BITMAP
60
40
40
40
40
80
40
40
40
40
60
ENDCHAR
STARTCHAR bar
ENCODING 124
SWIDTH 222 0
DWIDTH 3 0
BBX 1 12 1 -3
BITMAP
80
80
80
80
80
80
80
80
80
80
80
80
ENDCHAR
STARTCHAR braceright
ENCODING 125
SWIDTH 333 0
DWIDTH 4 0
BBX 3 11 0 -2
BITMAP
C0
40
40
40
40
20
40
40
40
40
C0
ENDCHAR
STARTCHAR asciitilde
ENCODING 126
SWIDTH 600 0
DWIDTH 7 0
BBX 5 2 1 2
BITMAP
E8
98
ENDCHAR
ENDFONT
